<svg width="33" height="33" viewBox="0 0 33 33" fill="none" xmlns="http://www.w3.org/2000/svg">
<mask id="mask0_91_22" style="mask-type:alpha" maskUnits="userSpaceOnUse" x="4" y="3" width="26" height="27">
<circle cx="16.9116" cy="16.346" r="12.729" transform="rotate(-17.7648 16.9116 16.346)" fill="#C4C4C4"/>
</mask>
<g mask="url(#mask0_91_22)">
<path d="M-0.985832 15.1698L23.2828 7.39447M-2.30371 11.0564L15.7325 5.27783M0.332044 19.2832L8.39641 16.6995M1.64992 23.3966L10.0259 20.713M2.9678 27.51L24.1203 20.7331M4.28568 31.6234L22.2284 25.8748" stroke="#83AD8A" stroke-width="0.792297" stroke-linecap="round"/>
</g>
<path d="M17.4614 17.7344C16.7726 18.2782 15.7735 18.1607 15.2297 17.472C14.6859 16.7832 14.8035 15.7841 15.4922 15.2403C16.1809 14.6965 17.1801 14.814 17.7239 15.5028C18.2676 16.1915 18.1501 17.1907 17.4614 17.7344Z" fill="#83AD8A"/>
<path d="M19.6395 12.4008C19.0543 12.5813 18.4335 12.2531 18.2531 11.6679C18.0726 11.0827 18.4007 10.4619 18.986 10.2815C19.5712 10.101 20.192 10.4291 20.3724 11.0144C20.5529 11.5996 20.2247 12.2204 19.6395 12.4008Z" fill="#83AD8A"/>
<path d="M22.0501 20.2181C21.4648 20.3986 20.8441 20.0705 20.6636 19.4852C20.4831 18.9 20.8113 18.2793 21.3965 18.0988C21.9818 17.9183 22.6025 18.2465 22.783 18.8317C22.9634 19.417 22.6353 20.0377 22.0501 20.2181Z" fill="#83AD8A"/>
<path d="M13.9461 22.7171C13.3609 22.8975 12.7401 22.5694 12.5597 21.9841C12.3792 21.3989 12.7073 20.7782 13.2926 20.5977C13.8778 20.4172 14.4986 20.7454 14.679 21.3306C14.8595 21.9159 14.5313 22.5366 13.9461 22.7171Z" fill="#83AD8A"/>
<path d="M11.5356 14.8997C10.9503 15.0802 10.3296 14.7521 10.1491 14.1668C9.96868 13.5816 10.2968 12.9608 10.8821 12.7804C11.4673 12.5999 12.088 12.9281 12.2685 13.5133C12.449 14.0985 12.1208 14.7193 11.5356 14.8997Z" fill="#83AD8A"/>
<path d="M21.3184 2.98561C15.5104 1.07265 8.9041 3.10453 5.25498 8.39257C0.817719 14.8227 2.43328 23.6325 8.86344 28.0698C14.1515 31.7189 21.0489 31.2744 25.8002 27.4251" stroke="#83AD8A" stroke-width="1.71664" stroke-miterlimit="16" stroke-linecap="round" stroke-linejoin="round"/>
</svg>
